ISO-10303-21;
HEADER;
/* Generated by software containing ST-Developer
 * from STEP Tools, Inc. (www.steptools.com) 
 */

FILE_DESCRIPTION(
/* description */ (''),
/* implementation_level */ '2;1');

FILE_NAME(
/* name */ 'CameraClip V2.step',
/* time_stamp */ '2026-02-14T15:04:12-05:00',
/* author */ (''),
/* organization */ (''),
/* preprocessor_version */ 'ST-DEVELOPER v20.1',
/* originating_system */ 'Autodesk Translation Framework v14.24.0.0',
/* authorisation */ '');

FILE_SCHEMA (('AUTOMOTIVE_DESIGN { 1 0 10303 214 3 1 1 }'));
ENDSEC;

DATA;
#10=MECHANICAL_DESIGN_GEOMETRIC_PRESENTATION_REPRESENTATION('',(#13),#897);
#11=SHAPE_REPRESENTATION_RELATIONSHIP('SRR','None',#903,#12);
#12=ADVANCED_BREP_SHAPE_REPRESENTATION('',(#14),#896);
#13=STYLED_ITEM('',(#912),#14);
#14=MANIFOLD_SOLID_BREP('Body1',#569);
#15=FACE_OUTER_BOUND('',#43,.T.);
#16=FACE_OUTER_BOUND('',#44,.T.);
#17=FACE_OUTER_BOUND('',#45,.T.);
#18=FACE_OUTER_BOUND('',#46,.T.);
#19=FACE_OUTER_BOUND('',#47,.T.);
#20=FACE_OUTER_BOUND('',#48,.T.);
#21=FACE_OUTER_BOUND('',#49,.T.);
#22=FACE_OUTER_BOUND('',#50,.T.);
#23=FACE_OUTER_BOUND('',#51,.T.);
#24=FACE_OUTER_BOUND('',#52,.T.);
#25=FACE_OUTER_BOUND('',#53,.T.);
#26=FACE_OUTER_BOUND('',#54,.T.);
#27=FACE_OUTER_BOUND('',#55,.T.);
#28=FACE_OUTER_BOUND('',#56,.T.);
#29=FACE_OUTER_BOUND('',#57,.T.);
#30=FACE_OUTER_BOUND('',#58,.T.);
#31=FACE_OUTER_BOUND('',#59,.T.);
#32=FACE_OUTER_BOUND('',#60,.T.);
#33=FACE_OUTER_BOUND('',#61,.T.);
#34=FACE_OUTER_BOUND('',#62,.T.);
#35=FACE_OUTER_BOUND('',#63,.T.);
#36=FACE_OUTER_BOUND('',#64,.T.);
#37=FACE_OUTER_BOUND('',#65,.T.);
#38=FACE_OUTER_BOUND('',#66,.T.);
#39=FACE_OUTER_BOUND('',#67,.T.);
#40=FACE_OUTER_BOUND('',#68,.T.);
#41=FACE_OUTER_BOUND('',#69,.T.);
#42=FACE_OUTER_BOUND('',#70,.T.);
#43=EDGE_LOOP('',(#357,#358,#359,#360,#361,#362,#363,#364,#365,#366,#367,
#368,#369,#370,#371,#372,#373,#374,#375,#376,#377,#378,#379,#380,#381,#382));
#44=EDGE_LOOP('',(#383,#384,#385,#386));
#45=EDGE_LOOP('',(#387,#388,#389,#390));
#46=EDGE_LOOP('',(#391,#392,#393,#394));
#47=EDGE_LOOP('',(#395,#396,#397,#398));
#48=EDGE_LOOP('',(#399,#400,#401,#402));
#49=EDGE_LOOP('',(#403,#404,#405,#406));
#50=EDGE_LOOP('',(#407,#408,#409,#410));
#51=EDGE_LOOP('',(#411,#412,#413,#414));
#52=EDGE_LOOP('',(#415,#416,#417,#418));
#53=EDGE_LOOP('',(#419,#420,#421,#422));
#54=EDGE_LOOP('',(#423,#424,#425,#426));
#55=EDGE_LOOP('',(#427,#428,#429,#430));
#56=EDGE_LOOP('',(#431,#432,#433,#434));
#57=EDGE_LOOP('',(#435,#436,#437,#438));
#58=EDGE_LOOP('',(#439,#440,#441,#442));
#59=EDGE_LOOP('',(#443,#444,#445,#446));
#60=EDGE_LOOP('',(#447,#448,#449,#450));
#61=EDGE_LOOP('',(#451,#452,#453,#454));
#62=EDGE_LOOP('',(#455,#456,#457,#458));
#63=EDGE_LOOP('',(#459,#460,#461,#462));
#64=EDGE_LOOP('',(#463,#464,#465,#466));
#65=EDGE_LOOP('',(#467,#468,#469,#470));
#66=EDGE_LOOP('',(#471,#472,#473,#474));
#67=EDGE_LOOP('',(#475,#476,#477,#478));
#68=EDGE_LOOP('',(#479,#480,#481,#482));
#69=EDGE_LOOP('',(#483,#484,#485,#486));
#70=EDGE_LOOP('',(#487,#488,#489,#490,#491,#492,#493,#494,#495,#496,#497,
#498,#499,#500,#501,#502,#503,#504,#505,#506,#507,#508,#509,#510,#511,#512));
#71=LINE('',#739,#149);
#72=LINE('',#741,#150);
#73=LINE('',#743,#151);
#74=LINE('',#745,#152);
#75=LINE('',#747,#153);
#76=LINE('',#749,#154);
#77=LINE('',#751,#155);
#78=LINE('',#753,#156);
#79=LINE('',#755,#157);
#80=LINE('',#757,#158);
#81=LINE('',#759,#159);
#82=LINE('',#761,#160);
#83=LINE('',#763,#161);
#84=LINE('',#765,#162);
#85=LINE('',#767,#163);
#86=LINE('',#769,#164);
#87=LINE('',#771,#165);
#88=LINE('',#773,#166);
#89=LINE('',#775,#167);
#90=LINE('',#777,#168);
#91=LINE('',#779,#169);
#92=LINE('',#781,#170);
#93=LINE('',#783,#171);
#94=LINE('',#785,#172);
#95=LINE('',#787,#173);
#96=LINE('',#788,#174);
#97=LINE('',#791,#175);
#98=LINE('',#793,#176);
#99=LINE('',#794,#177);
#100=LINE('',#797,#178);
#101=LINE('',#798,#179);
#102=LINE('',#801,#180);
#103=LINE('',#802,#181);
#104=LINE('',#805,#182);
#105=LINE('',#806,#183);
#106=LINE('',#809,#184);
#107=LINE('',#810,#185);
#108=LINE('',#813,#186);
#109=LINE('',#814,#187);
#110=LINE('',#817,#188);
#111=LINE('',#818,#189);
#112=LINE('',#821,#190);
#113=LINE('',#822,#191);
#114=LINE('',#825,#192);
#115=LINE('',#826,#193);
#116=LINE('',#829,#194);
#117=LINE('',#830,#195);
#118=LINE('',#833,#196);
#119=LINE('',#834,#197);
#120=LINE('',#837,#198);
#121=LINE('',#838,#199);
#122=LINE('',#841,#200);
#123=LINE('',#842,#201);
#124=LINE('',#845,#202);
#125=LINE('',#847,#203);
#126=LINE('',#848,#204);
#127=LINE('',#851,#205);
#128=LINE('',#852,#206);
#129=LINE('',#855,#207);
#130=LINE('',#856,#208);
#131=LINE('',#859,#209);
#132=LINE('',#860,#210);
#133=LINE('',#863,#211);
#134=LINE('',#864,#212);
#135=LINE('',#867,#213);
#136=LINE('',#868,#214);
#137=LINE('',#871,#215);
#138=LINE('',#872,#216);
#139=LINE('',#875,#217);
#140=LINE('',#876,#218);
#141=LINE('',#879,#219);
#142=LINE('',#880,#220);
#143=LINE('',#882,#221);
#144=LINE('',#885,#222);
#145=LINE('',#886,#223);
#146=LINE('',#889,#224);
#147=LINE('',#890,#225);
#148=LINE('',#892,#226);
#149=VECTOR('',#603,10.);
#150=VECTOR('',#604,10.);
#151=VECTOR('',#605,10.);
#152=VECTOR('',#606,10.);
#153=VECTOR('',#607,10.);
#154=VECTOR('',#608,10.);
#155=VECTOR('',#609,10.);
#156=VECTOR('',#610,10.);
#157=VECTOR('',#611,10.);
#158=VECTOR('',#612,10.);
#159=VECTOR('',#613,10.);
#160=VECTOR('',#614,10.);
#161=VECTOR('',#615,10.);
#162=VECTOR('',#616,10.);
#163=VECTOR('',#617,10.);
#164=VECTOR('',#618,10.);
#165=VECTOR('',#619,10.);
#166=VECTOR('',#620,10.);
#167=VECTOR('',#621,10.);
#168=VECTOR('',#622,10.);
#169=VECTOR('',#623,10.);
#170=VECTOR('',#624,10.);
#171=VECTOR('',#625,10.);
#172=VECTOR('',#626,10.);
#173=VECTOR('',#627,10.);
#174=VECTOR('',#628,10.);
#175=VECTOR('',#631,10.);
#176=VECTOR('',#632,10.);
#177=VECTOR('',#633,10.);
#178=VECTOR('',#636,10.);
#179=VECTOR('',#637,10.);
#180=VECTOR('',#640,10.);
#181=VECTOR('',#641,10.);
#182=VECTOR('',#644,10.);
#183=VECTOR('',#645,10.);
#184=VECTOR('',#648,10.);
#185=VECTOR('',#649,10.);
#186=VECTOR('',#652,10.);
#187=VECTOR('',#653,10.);
#188=VECTOR('',#656,10.);
#189=VECTOR('',#657,10.);
#190=VECTOR('',#660,10.);
#191=VECTOR('',#661,10.);
#192=VECTOR('',#664,10.);
#193=VECTOR('',#665,10.);
#194=VECTOR('',#668,10.);
#195=VECTOR('',#669,10.);
#196=VECTOR('',#672,10.);
#197=VECTOR('',#673,10.);
#198=VECTOR('',#676,10.);
#199=VECTOR('',#677,10.);
#200=VECTOR('',#680,10.);
#201=VECTOR('',#681,10.);
#202=VECTOR('',#684,10.);
#203=VECTOR('',#685,10.);
#204=VECTOR('',#686,10.);
#205=VECTOR('',#689,10.);
#206=VECTOR('',#690,10.);
#207=VECTOR('',#693,10.);
#208=VECTOR('',#694,10.);
#209=VECTOR('',#697,10.);
#210=VECTOR('',#698,10.);
#211=VECTOR('',#701,10.);
#212=VECTOR('',#702,10.);
#213=VECTOR('',#705,10.);
#214=VECTOR('',#706,10.);
#215=VECTOR('',#709,10.);
#216=VECTOR('',#710,10.);
#217=VECTOR('',#713,10.);
#218=VECTOR('',#714,10.);
#219=VECTOR('',#717,10.);
#220=VECTOR('',#718,10.);
#221=VECTOR('',#721,10.);
#222=VECTOR('',#724,10.);
#223=VECTOR('',#725,10.);
#224=VECTOR('',#728,10.);
#225=VECTOR('',#729,10.);
#226=VECTOR('',#732,10.);
#227=VERTEX_POINT('',#737);
#228=VERTEX_POINT('',#738);
#229=VERTEX_POINT('',#740);
#230=VERTEX_POINT('',#742);
#231=VERTEX_POINT('',#744);
#232=VERTEX_POINT('',#746);
#233=VERTEX_POINT('',#748);
#234=VERTEX_POINT('',#750);
#235=VERTEX_POINT('',#752);
#236=VERTEX_POINT('',#754);
#237=VERTEX_POINT('',#756);
#238=VERTEX_POINT('',#758);
#239=VERTEX_POINT('',#760);
#240=VERTEX_POINT('',#762);
#241=VERTEX_POINT('',#764);
#242=VERTEX_POINT('',#766);
#243=VERTEX_POINT('',#768);
#244=VERTEX_POINT('',#770);
#245=VERTEX_POINT('',#772);
#246=VERTEX_POINT('',#774);
#247=VERTEX_POINT('',#776);
#248=VERTEX_POINT('',#778);
#249=VERTEX_POINT('',#780);
#250=VERTEX_POINT('',#782);
#251=VERTEX_POINT('',#784);
#252=VERTEX_POINT('',#786);
#253=VERTEX_POINT('',#790);
#254=VERTEX_POINT('',#792);
#255=VERTEX_POINT('',#796);
#256=VERTEX_POINT('',#800);
#257=VERTEX_POINT('',#804);
#258=VERTEX_POINT('',#808);
#259=VERTEX_POINT('',#812);
#260=VERTEX_POINT('',#816);
#261=VERTEX_POINT('',#820);
#262=VERTEX_POINT('',#824);
#263=VERTEX_POINT('',#828);
#264=VERTEX_POINT('',#832);
#265=VERTEX_POINT('',#836);
#266=VERTEX_POINT('',#840);
#267=VERTEX_POINT('',#844);
#268=VERTEX_POINT('',#846);
#269=VERTEX_POINT('',#850);
#270=VERTEX_POINT('',#854);
#271=VERTEX_POINT('',#858);
#272=VERTEX_POINT('',#862);
#273=VERTEX_POINT('',#866);
#274=VERTEX_POINT('',#870);
#275=VERTEX_POINT('',#874);
#276=VERTEX_POINT('',#878);
#277=VERTEX_POINT('',#884);
#278=VERTEX_POINT('',#888);
#279=EDGE_CURVE('',#227,#228,#71,.T.);
#280=EDGE_CURVE('',#229,#227,#72,.T.);
#281=EDGE_CURVE('',#230,#229,#73,.T.);
#282=EDGE_CURVE('',#231,#230,#74,.T.);
#283=EDGE_CURVE('',#232,#231,#75,.T.);
#284=EDGE_CURVE('',#233,#232,#76,.T.);
#285=EDGE_CURVE('',#234,#233,#77,.T.);
#286=EDGE_CURVE('',#235,#234,#78,.T.);
#287=EDGE_CURVE('',#236,#235,#79,.T.);
#288=EDGE_CURVE('',#237,#236,#80,.T.);
#289=EDGE_CURVE('',#238,#237,#81,.T.);
#290=EDGE_CURVE('',#239,#238,#82,.T.);
#291=EDGE_CURVE('',#240,#239,#83,.T.);
#292=EDGE_CURVE('',#241,#240,#84,.T.);
#293=EDGE_CURVE('',#242,#241,#85,.T.);
#294=EDGE_CURVE('',#243,#242,#86,.T.);
#295=EDGE_CURVE('',#244,#243,#87,.T.);
#296=EDGE_CURVE('',#245,#244,#88,.T.);
#297=EDGE_CURVE('',#246,#245,#89,.T.);
#298=EDGE_CURVE('',#247,#246,#90,.T.);
#299=EDGE_CURVE('',#248,#247,#91,.T.);
#300=EDGE_CURVE('',#249,#248,#92,.T.);
#301=EDGE_CURVE('',#250,#249,#93,.T.);
#302=EDGE_CURVE('',#251,#250,#94,.T.);
#303=EDGE_CURVE('',#252,#251,#95,.T.);
#304=EDGE_CURVE('',#228,#252,#96,.T.);
#305=EDGE_CURVE('',#239,#253,#97,.T.);
#306=EDGE_CURVE('',#254,#253,#98,.T.);
#307=EDGE_CURVE('',#240,#254,#99,.T.);
#308=EDGE_CURVE('',#238,#255,#100,.T.);
#309=EDGE_CURVE('',#253,#255,#101,.T.);
#310=EDGE_CURVE('',#237,#256,#102,.T.);
#311=EDGE_CURVE('',#255,#256,#103,.T.);
#312=EDGE_CURVE('',#236,#257,#104,.T.);
#313=EDGE_CURVE('',#256,#257,#105,.T.);
#314=EDGE_CURVE('',#235,#258,#106,.T.);
#315=EDGE_CURVE('',#257,#258,#107,.T.);
#316=EDGE_CURVE('',#234,#259,#108,.T.);
#317=EDGE_CURVE('',#258,#259,#109,.T.);
#318=EDGE_CURVE('',#233,#260,#110,.T.);
#319=EDGE_CURVE('',#259,#260,#111,.T.);
#320=EDGE_CURVE('',#232,#261,#112,.T.);
#321=EDGE_CURVE('',#260,#261,#113,.T.);
#322=EDGE_CURVE('',#262,#231,#114,.T.);
#323=EDGE_CURVE('',#261,#262,#115,.T.);
#324=EDGE_CURVE('',#263,#230,#116,.T.);
#325=EDGE_CURVE('',#263,#262,#117,.T.);
#326=EDGE_CURVE('',#264,#229,#118,.T.);
#327=EDGE_CURVE('',#264,#263,#119,.T.);
#328=EDGE_CURVE('',#265,#227,#120,.T.);
#329=EDGE_CURVE('',#265,#264,#121,.T.);
#330=EDGE_CURVE('',#266,#228,#122,.T.);
#331=EDGE_CURVE('',#266,#265,#123,.T.);
#332=EDGE_CURVE('',#267,#241,#124,.T.);
#333=EDGE_CURVE('',#268,#267,#125,.T.);
#334=EDGE_CURVE('',#242,#268,#126,.T.);
#335=EDGE_CURVE('',#269,#268,#127,.T.);
#336=EDGE_CURVE('',#243,#269,#128,.T.);
#337=EDGE_CURVE('',#270,#269,#129,.T.);
#338=EDGE_CURVE('',#244,#270,#130,.T.);
#339=EDGE_CURVE('',#271,#270,#131,.T.);
#340=EDGE_CURVE('',#245,#271,#132,.T.);
#341=EDGE_CURVE('',#272,#271,#133,.T.);
#342=EDGE_CURVE('',#246,#272,#134,.T.);
#343=EDGE_CURVE('',#273,#272,#135,.T.);
#344=EDGE_CURVE('',#247,#273,#136,.T.);
#345=EDGE_CURVE('',#274,#273,#137,.T.);
#346=EDGE_CURVE('',#248,#274,#138,.T.);
#347=EDGE_CURVE('',#275,#274,#139,.T.);
#348=EDGE_CURVE('',#249,#275,#140,.T.);
#349=EDGE_CURVE('',#276,#275,#141,.T.);
#350=EDGE_CURVE('',#276,#250,#142,.T.);
#351=EDGE_CURVE('',#254,#267,#143,.T.);
#352=EDGE_CURVE('',#277,#252,#144,.T.);
#353=EDGE_CURVE('',#266,#277,#145,.T.);
#354=EDGE_CURVE('',#278,#251,#146,.T.);
#355=EDGE_CURVE('',#277,#278,#147,.T.);
#356=EDGE_CURVE('',#278,#276,#148,.T.);
#357=ORIENTED_EDGE('',*,*,#279,.F.);
#358=ORIENTED_EDGE('',*,*,#280,.F.);
#359=ORIENTED_EDGE('',*,*,#281,.F.);
#360=ORIENTED_EDGE('',*,*,#282,.F.);
#361=ORIENTED_EDGE('',*,*,#283,.F.);
#362=ORIENTED_EDGE('',*,*,#284,.F.);
#363=ORIENTED_EDGE('',*,*,#285,.F.);
#364=ORIENTED_EDGE('',*,*,#286,.F.);
#365=ORIENTED_EDGE('',*,*,#287,.F.);
#366=ORIENTED_EDGE('',*,*,#288,.F.);
#367=ORIENTED_EDGE('',*,*,#289,.F.);
#368=ORIENTED_EDGE('',*,*,#290,.F.);
#369=ORIENTED_EDGE('',*,*,#291,.F.);
#370=ORIENTED_EDGE('',*,*,#292,.F.);
#371=ORIENTED_EDGE('',*,*,#293,.F.);
#372=ORIENTED_EDGE('',*,*,#294,.F.);
#373=ORIENTED_EDGE('',*,*,#295,.F.);
#374=ORIENTED_EDGE('',*,*,#296,.F.);
#375=ORIENTED_EDGE('',*,*,#297,.F.);
#376=ORIENTED_EDGE('',*,*,#298,.F.);
#377=ORIENTED_EDGE('',*,*,#299,.F.);
#378=ORIENTED_EDGE('',*,*,#300,.F.);
#379=ORIENTED_EDGE('',*,*,#301,.F.);
#380=ORIENTED_EDGE('',*,*,#302,.F.);
#381=ORIENTED_EDGE('',*,*,#303,.F.);
#382=ORIENTED_EDGE('',*,*,#304,.F.);
#383=ORIENTED_EDGE('',*,*,#291,.T.);
#384=ORIENTED_EDGE('',*,*,#305,.T.);
#385=ORIENTED_EDGE('',*,*,#306,.F.);
#386=ORIENTED_EDGE('',*,*,#307,.F.);
#387=ORIENTED_EDGE('',*,*,#290,.T.);
#388=ORIENTED_EDGE('',*,*,#308,.T.);
#389=ORIENTED_EDGE('',*,*,#309,.F.);
#390=ORIENTED_EDGE('',*,*,#305,.F.);
#391=ORIENTED_EDGE('',*,*,#289,.T.);
#392=ORIENTED_EDGE('',*,*,#310,.T.);
#393=ORIENTED_EDGE('',*,*,#311,.F.);
#394=ORIENTED_EDGE('',*,*,#308,.F.);
#395=ORIENTED_EDGE('',*,*,#288,.T.);
#396=ORIENTED_EDGE('',*,*,#312,.T.);
#397=ORIENTED_EDGE('',*,*,#313,.F.);
#398=ORIENTED_EDGE('',*,*,#310,.F.);
#399=ORIENTED_EDGE('',*,*,#287,.T.);
#400=ORIENTED_EDGE('',*,*,#314,.T.);
#401=ORIENTED_EDGE('',*,*,#315,.F.);
#402=ORIENTED_EDGE('',*,*,#312,.F.);
#403=ORIENTED_EDGE('',*,*,#286,.T.);
#404=ORIENTED_EDGE('',*,*,#316,.T.);
#405=ORIENTED_EDGE('',*,*,#317,.F.);
#406=ORIENTED_EDGE('',*,*,#314,.F.);
#407=ORIENTED_EDGE('',*,*,#285,.T.);
#408=ORIENTED_EDGE('',*,*,#318,.T.);
#409=ORIENTED_EDGE('',*,*,#319,.F.);
#410=ORIENTED_EDGE('',*,*,#316,.F.);
#411=ORIENTED_EDGE('',*,*,#284,.T.);
#412=ORIENTED_EDGE('',*,*,#320,.T.);
#413=ORIENTED_EDGE('',*,*,#321,.F.);
#414=ORIENTED_EDGE('',*,*,#318,.F.);
#415=ORIENTED_EDGE('',*,*,#283,.T.);
#416=ORIENTED_EDGE('',*,*,#322,.F.);
#417=ORIENTED_EDGE('',*,*,#323,.F.);
#418=ORIENTED_EDGE('',*,*,#320,.F.);
#419=ORIENTED_EDGE('',*,*,#282,.T.);
#420=ORIENTED_EDGE('',*,*,#324,.F.);
#421=ORIENTED_EDGE('',*,*,#325,.T.);
#422=ORIENTED_EDGE('',*,*,#322,.T.);
#423=ORIENTED_EDGE('',*,*,#281,.T.);
#424=ORIENTED_EDGE('',*,*,#326,.F.);
#425=ORIENTED_EDGE('',*,*,#327,.T.);
#426=ORIENTED_EDGE('',*,*,#324,.T.);
#427=ORIENTED_EDGE('',*,*,#280,.T.);
#428=ORIENTED_EDGE('',*,*,#328,.F.);
#429=ORIENTED_EDGE('',*,*,#329,.T.);
#430=ORIENTED_EDGE('',*,*,#326,.T.);
#431=ORIENTED_EDGE('',*,*,#279,.T.);
#432=ORIENTED_EDGE('',*,*,#330,.F.);
#433=ORIENTED_EDGE('',*,*,#331,.T.);
#434=ORIENTED_EDGE('',*,*,#328,.T.);
#435=ORIENTED_EDGE('',*,*,#293,.T.);
#436=ORIENTED_EDGE('',*,*,#332,.F.);
#437=ORIENTED_EDGE('',*,*,#333,.F.);
#438=ORIENTED_EDGE('',*,*,#334,.F.);
#439=ORIENTED_EDGE('',*,*,#294,.T.);
#440=ORIENTED_EDGE('',*,*,#334,.T.);
#441=ORIENTED_EDGE('',*,*,#335,.F.);
#442=ORIENTED_EDGE('',*,*,#336,.F.);
#443=ORIENTED_EDGE('',*,*,#295,.T.);
#444=ORIENTED_EDGE('',*,*,#336,.T.);
#445=ORIENTED_EDGE('',*,*,#337,.F.);
#446=ORIENTED_EDGE('',*,*,#338,.F.);
#447=ORIENTED_EDGE('',*,*,#296,.T.);
#448=ORIENTED_EDGE('',*,*,#338,.T.);
#449=ORIENTED_EDGE('',*,*,#339,.F.);
#450=ORIENTED_EDGE('',*,*,#340,.F.);
#451=ORIENTED_EDGE('',*,*,#297,.T.);
#452=ORIENTED_EDGE('',*,*,#340,.T.);
#453=ORIENTED_EDGE('',*,*,#341,.F.);
#454=ORIENTED_EDGE('',*,*,#342,.F.);
#455=ORIENTED_EDGE('',*,*,#298,.T.);
#456=ORIENTED_EDGE('',*,*,#342,.T.);
#457=ORIENTED_EDGE('',*,*,#343,.F.);
#458=ORIENTED_EDGE('',*,*,#344,.F.);
#459=ORIENTED_EDGE('',*,*,#299,.T.);
#460=ORIENTED_EDGE('',*,*,#344,.T.);
#461=ORIENTED_EDGE('',*,*,#345,.F.);
#462=ORIENTED_EDGE('',*,*,#346,.F.);
#463=ORIENTED_EDGE('',*,*,#300,.T.);
#464=ORIENTED_EDGE('',*,*,#346,.T.);
#465=ORIENTED_EDGE('',*,*,#347,.F.);
#466=ORIENTED_EDGE('',*,*,#348,.F.);
#467=ORIENTED_EDGE('',*,*,#301,.T.);
#468=ORIENTED_EDGE('',*,*,#348,.T.);
#469=ORIENTED_EDGE('',*,*,#349,.F.);
#470=ORIENTED_EDGE('',*,*,#350,.T.);
#471=ORIENTED_EDGE('',*,*,#292,.T.);
#472=ORIENTED_EDGE('',*,*,#307,.T.);
#473=ORIENTED_EDGE('',*,*,#351,.T.);
#474=ORIENTED_EDGE('',*,*,#332,.T.);
#475=ORIENTED_EDGE('',*,*,#304,.T.);
#476=ORIENTED_EDGE('',*,*,#352,.F.);
#477=ORIENTED_EDGE('',*,*,#353,.F.);
#478=ORIENTED_EDGE('',*,*,#330,.T.);
#479=ORIENTED_EDGE('',*,*,#303,.T.);
#480=ORIENTED_EDGE('',*,*,#354,.F.);
#481=ORIENTED_EDGE('',*,*,#355,.F.);
#482=ORIENTED_EDGE('',*,*,#352,.T.);
#483=ORIENTED_EDGE('',*,*,#302,.T.);
#484=ORIENTED_EDGE('',*,*,#350,.F.);
#485=ORIENTED_EDGE('',*,*,#356,.F.);
#486=ORIENTED_EDGE('',*,*,#354,.T.);
#487=ORIENTED_EDGE('',*,*,#331,.F.);
#488=ORIENTED_EDGE('',*,*,#353,.T.);
#489=ORIENTED_EDGE('',*,*,#355,.T.);
#490=ORIENTED_EDGE('',*,*,#356,.T.);
#491=ORIENTED_EDGE('',*,*,#349,.T.);
#492=ORIENTED_EDGE('',*,*,#347,.T.);
#493=ORIENTED_EDGE('',*,*,#345,.T.);
#494=ORIENTED_EDGE('',*,*,#343,.T.);
#495=ORIENTED_EDGE('',*,*,#341,.T.);
#496=ORIENTED_EDGE('',*,*,#339,.T.);
#497=ORIENTED_EDGE('',*,*,#337,.T.);
#498=ORIENTED_EDGE('',*,*,#335,.T.);
#499=ORIENTED_EDGE('',*,*,#333,.T.);
#500=ORIENTED_EDGE('',*,*,#351,.F.);
#501=ORIENTED_EDGE('',*,*,#306,.T.);
#502=ORIENTED_EDGE('',*,*,#309,.T.);
#503=ORIENTED_EDGE('',*,*,#311,.T.);
#504=ORIENTED_EDGE('',*,*,#313,.T.);
#505=ORIENTED_EDGE('',*,*,#315,.T.);
#506=ORIENTED_EDGE('',*,*,#317,.T.);
#507=ORIENTED_EDGE('',*,*,#319,.T.);
#508=ORIENTED_EDGE('',*,*,#321,.T.);
#509=ORIENTED_EDGE('',*,*,#323,.T.);
#510=ORIENTED_EDGE('',*,*,#325,.F.);
#511=ORIENTED_EDGE('',*,*,#327,.F.);
#512=ORIENTED_EDGE('',*,*,#329,.F.);
#513=PLANE('',#571);
#514=PLANE('',#572);
#515=PLANE('',#573);
#516=PLANE('',#574);
#517=PLANE('',#575);
#518=PLANE('',#576);
#519=PLANE('',#577);
#520=PLANE('',#578);
#521=PLANE('',#579);
#522=PLANE('',#580);
#523=PLANE('',#581);
#524=PLANE('',#582);
#525=PLANE('',#583);
#526=PLANE('',#584);
#527=PLANE('',#585);
#528=PLANE('',#586);
#529=PLANE('',#587);
#530=PLANE('',#588);
#531=PLANE('',#589);
#532=PLANE('',#590);
#533=PLANE('',#591);
#534=PLANE('',#592);
#535=PLANE('',#593);
#536=PLANE('',#594);
#537=PLANE('',#595);
#538=PLANE('',#596);
#539=PLANE('',#597);
#540=PLANE('',#598);
#541=ADVANCED_FACE('',(#15),#513,.F.);
#542=ADVANCED_FACE('',(#16),#514,.T.);
#543=ADVANCED_FACE('',(#17),#515,.T.);
#544=ADVANCED_FACE('',(#18),#516,.T.);
#545=ADVANCED_FACE('',(#19),#517,.T.);
#546=ADVANCED_FACE('',(#20),#518,.T.);
#547=ADVANCED_FACE('',(#21),#519,.T.);
#548=ADVANCED_FACE('',(#22),#520,.T.);
#549=ADVANCED_FACE('',(#23),#521,.T.);
#550=ADVANCED_FACE('',(#24),#522,.T.);
#551=ADVANCED_FACE('',(#25),#523,.T.);
#552=ADVANCED_FACE('',(#26),#524,.T.);
#553=ADVANCED_FACE('',(#27),#525,.T.);
#554=ADVANCED_FACE('',(#28),#526,.T.);
#555=ADVANCED_FACE('',(#29),#527,.T.);
#556=ADVANCED_FACE('',(#30),#528,.T.);
#557=ADVANCED_FACE('',(#31),#529,.T.);
#558=ADVANCED_FACE('',(#32),#530,.T.);
#559=ADVANCED_FACE('',(#33),#531,.T.);
#560=ADVANCED_FACE('',(#34),#532,.T.);
#561=ADVANCED_FACE('',(#35),#533,.T.);
#562=ADVANCED_FACE('',(#36),#534,.T.);
#563=ADVANCED_FACE('',(#37),#535,.T.);
#564=ADVANCED_FACE('',(#38),#536,.T.);
#565=ADVANCED_FACE('',(#39),#537,.T.);
#566=ADVANCED_FACE('',(#40),#538,.T.);
#567=ADVANCED_FACE('',(#41),#539,.T.);
#568=ADVANCED_FACE('',(#42),#540,.F.);
#569=CLOSED_SHELL('',(#541,#542,#543,#544,#545,#546,#547,#548,#549,#550,
#551,#552,#553,#554,#555,#556,#557,#558,#559,#560,#561,#562,#563,#564,#565,
#566,#567,#568));
#570=AXIS2_PLACEMENT_3D('',#735,#599,#600);
#571=AXIS2_PLACEMENT_3D('',#736,#601,#602);
#572=AXIS2_PLACEMENT_3D('',#789,#629,#630);
#573=AXIS2_PLACEMENT_3D('',#795,#634,#635);
#574=AXIS2_PLACEMENT_3D('',#799,#638,#639);
#575=AXIS2_PLACEMENT_3D('',#803,#642,#643);
#576=AXIS2_PLACEMENT_3D('',#807,#646,#647);
#577=AXIS2_PLACEMENT_3D('',#811,#650,#651);
#578=AXIS2_PLACEMENT_3D('',#815,#654,#655);
#579=AXIS2_PLACEMENT_3D('',#819,#658,#659);
#580=AXIS2_PLACEMENT_3D('',#823,#662,#663);
#581=AXIS2_PLACEMENT_3D('',#827,#666,#667);
#582=AXIS2_PLACEMENT_3D('',#831,#670,#671);
#583=AXIS2_PLACEMENT_3D('',#835,#674,#675);
#584=AXIS2_PLACEMENT_3D('',#839,#678,#679);
#585=AXIS2_PLACEMENT_3D('',#843,#682,#683);
#586=AXIS2_PLACEMENT_3D('',#849,#687,#688);
#587=AXIS2_PLACEMENT_3D('',#853,#691,#692);
#588=AXIS2_PLACEMENT_3D('',#857,#695,#696);
#589=AXIS2_PLACEMENT_3D('',#861,#699,#700);
#590=AXIS2_PLACEMENT_3D('',#865,#703,#704);
#591=AXIS2_PLACEMENT_3D('',#869,#707,#708);
#592=AXIS2_PLACEMENT_3D('',#873,#711,#712);
#593=AXIS2_PLACEMENT_3D('',#877,#715,#716);
#594=AXIS2_PLACEMENT_3D('',#881,#719,#720);
#595=AXIS2_PLACEMENT_3D('',#883,#722,#723);
#596=AXIS2_PLACEMENT_3D('',#887,#726,#727);
#597=AXIS2_PLACEMENT_3D('',#891,#730,#731);
#598=AXIS2_PLACEMENT_3D('',#893,#733,#734);
#599=DIRECTION('axis',(0.,0.,1.));
#600=DIRECTION('refdir',(1.,0.,0.));
#601=DIRECTION('center_axis',(0.,0.,-1.));
#602=DIRECTION('ref_axis',(-1.,0.,0.));
#603=DIRECTION('',(0.,-1.,0.));
#604=DIRECTION('',(-1.,0.,0.));
#605=DIRECTION('',(-0.894427190999916,-0.447213595499958,0.));
#606=DIRECTION('',(0.,1.,0.));
#607=DIRECTION('',(-0.999999999999979,-2.04890998981947E-7,0.));
#608=DIRECTION('',(-0.358979058145284,-0.9333456143429,0.));
#609=DIRECTION('',(0.857492925712544,-0.514495755427526,0.));
#610=DIRECTION('',(0.514495755427527,0.857492925712544,0.));
#611=DIRECTION('',(0.534919079786487,-0.844903295105646,0.));
#612=DIRECTION('',(0.857492925712544,-0.514495755427526,0.));
#613=DIRECTION('',(-0.514495755427527,-0.857492925712544,0.));
#614=DIRECTION('',(0.857492925712544,-0.514495755427526,0.));
#615=DIRECTION('',(0.610700633631051,0.791861563710876,0.));
#616=DIRECTION('',(0.,1.,0.));
#617=DIRECTION('',(-0.610700633631051,0.791861563710876,0.));
#618=DIRECTION('',(-0.857492925712544,-0.514495755427526,0.));
#619=DIRECTION('',(0.514495755427527,-0.857492925712544,0.));
#620=DIRECTION('',(-0.857492925712544,-0.514495755427526,0.));
#621=DIRECTION('',(-0.534919079786487,-0.844903295105646,0.));
#622=DIRECTION('',(-0.514495755427527,0.857492925712544,0.));
#623=DIRECTION('',(-0.857492925712544,-0.514495755427526,0.));
#624=DIRECTION('',(0.358979058145284,-0.9333456143429,0.));
#625=DIRECTION('',(0.999999999999979,-2.04890998981947E-7,0.));
#626=DIRECTION('',(0.,1.,0.));
#627=DIRECTION('',(0.894427190999916,-0.447213595499958,0.));
#628=DIRECTION('',(1.,0.,0.));
#629=DIRECTION('center_axis',(-0.791861563710876,0.61070063363105,0.));
#630=DIRECTION('ref_axis',(0.610700633631051,0.791861563710876,0.));
#631=DIRECTION('',(0.,0.,-1.));
#632=DIRECTION('',(0.610700633631051,0.791861563710876,0.));
#633=DIRECTION('',(0.,0.,-1.));
#634=DIRECTION('center_axis',(0.514495755427526,0.857492925712544,0.));
#635=DIRECTION('ref_axis',(0.857492925712544,-0.514495755427526,0.));
#636=DIRECTION('',(0.,0.,-1.));
#637=DIRECTION('',(0.857492925712544,-0.514495755427526,0.));
#638=DIRECTION('center_axis',(0.857492925712544,-0.514495755427527,0.));
#639=DIRECTION('ref_axis',(-0.514495755427527,-0.857492925712544,0.));
#640=DIRECTION('',(0.,0.,-1.));
#641=DIRECTION('',(-0.514495755427527,-0.857492925712544,0.));
#642=DIRECTION('center_axis',(0.514495755427526,0.857492925712544,0.));
#643=DIRECTION('ref_axis',(0.857492925712544,-0.514495755427526,0.));
#644=DIRECTION('',(0.,0.,-1.));
#645=DIRECTION('',(0.857492925712544,-0.514495755427526,0.));
#646=DIRECTION('center_axis',(0.844903295105646,0.534919079786487,0.));
#647=DIRECTION('ref_axis',(0.534919079786487,-0.844903295105646,0.));
#648=DIRECTION('',(0.,0.,-1.));
#649=DIRECTION('',(0.534919079786487,-0.844903295105646,0.));
#650=DIRECTION('center_axis',(-0.857492925712544,0.514495755427527,0.));
#651=DIRECTION('ref_axis',(0.514495755427527,0.857492925712544,0.));
#652=DIRECTION('',(0.,0.,-1.));
#653=DIRECTION('',(0.514495755427527,0.857492925712544,0.));
#654=DIRECTION('center_axis',(0.514495755427526,0.857492925712544,0.));
#655=DIRECTION('ref_axis',(0.857492925712544,-0.514495755427526,0.));
#656=DIRECTION('',(0.,0.,-1.));
#657=DIRECTION('',(0.857492925712544,-0.514495755427526,0.));
#658=DIRECTION('center_axis',(0.9333456143429,-0.358979058145284,0.));
#659=DIRECTION('ref_axis',(-0.358979058145284,-0.9333456143429,0.));
#660=DIRECTION('',(0.,0.,-1.));
#661=DIRECTION('',(-0.358979058145284,-0.9333456143429,0.));
#662=DIRECTION('center_axis',(2.04890998981947E-7,-0.999999999999979,0.));
#663=DIRECTION('ref_axis',(-0.999999999999979,-2.04890998981947E-7,0.));
#664=DIRECTION('',(0.,0.,1.));
#665=DIRECTION('',(-0.999999999999979,-2.04890998981947E-7,0.));
#666=DIRECTION('center_axis',(-1.,0.,0.));
#667=DIRECTION('ref_axis',(0.,-1.,0.));
#668=DIRECTION('',(0.,0.,1.));
#669=DIRECTION('',(0.,-1.,0.));
#670=DIRECTION('center_axis',(0.447213595499958,-0.894427190999916,0.));
#671=DIRECTION('ref_axis',(0.894427190999916,0.447213595499958,0.));
#672=DIRECTION('',(0.,0.,1.));
#673=DIRECTION('',(0.894427190999916,0.447213595499958,0.));
#674=DIRECTION('center_axis',(0.,-1.,0.));
#675=DIRECTION('ref_axis',(1.,0.,0.));
#676=DIRECTION('',(0.,0.,1.));
#677=DIRECTION('',(1.,0.,0.));
#678=DIRECTION('center_axis',(1.,0.,0.));
#679=DIRECTION('ref_axis',(0.,1.,0.));
#680=DIRECTION('',(0.,0.,1.));
#681=DIRECTION('',(0.,1.,0.));
#682=DIRECTION('center_axis',(-0.791861563710876,-0.61070063363105,0.));
#683=DIRECTION('ref_axis',(-0.610700633631051,0.791861563710876,0.));
#684=DIRECTION('',(0.,0.,1.));
#685=DIRECTION('',(-0.610700633631051,0.791861563710876,0.));
#686=DIRECTION('',(0.,0.,-1.));
#687=DIRECTION('center_axis',(0.514495755427526,-0.857492925712544,0.));
#688=DIRECTION('ref_axis',(-0.857492925712544,-0.514495755427526,0.));
#689=DIRECTION('',(-0.857492925712544,-0.514495755427526,0.));
#690=DIRECTION('',(0.,0.,-1.));
#691=DIRECTION('center_axis',(0.857492925712544,0.514495755427527,0.));
#692=DIRECTION('ref_axis',(0.514495755427527,-0.857492925712544,0.));
#693=DIRECTION('',(0.514495755427527,-0.857492925712544,0.));
#694=DIRECTION('',(0.,0.,-1.));
#695=DIRECTION('center_axis',(0.514495755427526,-0.857492925712544,0.));
#696=DIRECTION('ref_axis',(-0.857492925712544,-0.514495755427526,0.));
#697=DIRECTION('',(-0.857492925712544,-0.514495755427526,0.));
#698=DIRECTION('',(0.,0.,-1.));
#699=DIRECTION('center_axis',(0.844903295105646,-0.534919079786487,0.));
#700=DIRECTION('ref_axis',(-0.534919079786487,-0.844903295105646,0.));
#701=DIRECTION('',(-0.534919079786487,-0.844903295105646,0.));
#702=DIRECTION('',(0.,0.,-1.));
#703=DIRECTION('center_axis',(-0.857492925712544,-0.514495755427527,0.));
#704=DIRECTION('ref_axis',(-0.514495755427527,0.857492925712544,0.));
#705=DIRECTION('',(-0.514495755427527,0.857492925712544,0.));
#706=DIRECTION('',(0.,0.,-1.));
#707=DIRECTION('center_axis',(0.514495755427526,-0.857492925712544,0.));
#708=DIRECTION('ref_axis',(-0.857492925712544,-0.514495755427526,0.));
#709=DIRECTION('',(-0.857492925712544,-0.514495755427526,0.));
#710=DIRECTION('',(0.,0.,-1.));
#711=DIRECTION('center_axis',(0.9333456143429,0.358979058145284,0.));
#712=DIRECTION('ref_axis',(0.358979058145284,-0.9333456143429,0.));
#713=DIRECTION('',(0.358979058145284,-0.9333456143429,0.));
#714=DIRECTION('',(0.,0.,-1.));
#715=DIRECTION('center_axis',(2.04890998981947E-7,0.999999999999979,0.));
#716=DIRECTION('ref_axis',(0.999999999999979,-2.04890998981947E-7,0.));
#717=DIRECTION('',(0.999999999999979,-2.04890998981947E-7,0.));
#718=DIRECTION('',(0.,0.,1.));
#719=DIRECTION('center_axis',(-1.,0.,0.));
#720=DIRECTION('ref_axis',(0.,0.,1.));
#721=DIRECTION('',(0.,-1.,0.));
#722=DIRECTION('center_axis',(0.,1.,0.));
#723=DIRECTION('ref_axis',(-1.,0.,0.));
#724=DIRECTION('',(0.,0.,1.));
#725=DIRECTION('',(1.,0.,0.));
#726=DIRECTION('center_axis',(0.447213595499958,0.894427190999916,0.));
#727=DIRECTION('ref_axis',(-0.894427190999916,0.447213595499958,0.));
#728=DIRECTION('',(0.,0.,1.));
#729=DIRECTION('',(0.894427190999916,-0.447213595499958,0.));
#730=DIRECTION('center_axis',(-1.,0.,0.));
#731=DIRECTION('ref_axis',(0.,-1.,0.));
#732=DIRECTION('',(0.,1.,0.));
#733=DIRECTION('center_axis',(0.,0.,1.));
#734=DIRECTION('ref_axis',(1.,0.,0.));
#735=CARTESIAN_POINT('',(0.,0.,0.));
#736=CARTESIAN_POINT('Origin',(3.50000005215406,0.,5.));
#737=CARTESIAN_POINT('',(0.999999977648258,4.69999989494681,5.));
#738=CARTESIAN_POINT('',(1.00000001490116,-4.69999989494681,5.));
#739=CARTESIAN_POINT('',(1.00000001490116,-2.34999994747341,5.));
#740=CARTESIAN_POINT('',(3.4999999217689,4.69999989494681,5.));
#741=CARTESIAN_POINT('',(2.25000001490116,4.69999989494681,5.));
#742=CARTESIAN_POINT('',(5.49999987706542,5.69999987259507,5.));
#743=CARTESIAN_POINT('',(2.55999999493361,4.22999993152916,5.));
#744=CARTESIAN_POINT('',(5.50000008195639,4.70000003154079,5.));
#745=CARTESIAN_POINT('',(5.49999987706542,2.84999993629754,5.));
#746=CARTESIAN_POINT('',(7.00000008195635,4.70000033887729,5.));
#747=CARTESIAN_POINT('',(5.2499995855614,4.69999998031794,5.));
#748=CARTESIAN_POINT('',(7.99999982118607,7.29999983683228,5.));
#749=CARTESIAN_POINT('',(6.48711336108526,3.36649477436604,5.));
#750=CARTESIAN_POINT('',(6.99999984353781,7.89999982342124,5.));
#751=CARTESIAN_POINT('',(7.45588223422494,7.62647038900896,5.));
#752=CARTESIAN_POINT('',(6.4598710811248,6.99978521939955,5.));
#753=CARTESIAN_POINT('',(4.5240531759523,3.77342204411206,5.));
#754=CARTESIAN_POINT('',(5.69999987259507,8.19999981671572,5.));
#755=CARTESIAN_POINT('',(7.23826265457332,5.77031775386882,5.));
#756=CARTESIAN_POINT('',(4.84250694688253,8.71449557214324,5.));
#757=CARTESIAN_POINT('',(6.27125343532278,7.85724767907909,5.));
#758=CARTESIAN_POINT('',(6.38599421316511,11.2869743492809,5.));
#759=CARTESIAN_POINT('',(3.51425064421933,6.50073506770459,5.));
#760=CARTESIAN_POINT('',(4.67100836174002,12.3159658601359,5.));
#761=CARTESIAN_POINT('',(6.95724777589281,10.9442222116443,5.));
#762=CARTESIAN_POINT('',(-0.2,6.00000008940697,5.));
#763=CARTESIAN_POINT('',(-0.960803849764397,5.01350802934525,5.));
#764=CARTESIAN_POINT('',(-0.2,-6.00000008940697,5.));
#765=CARTESIAN_POINT('',(-0.2,3.00000004470348,5.));
#766=CARTESIAN_POINT('',(4.67100836174002,-12.3159658601359,5.));
#767=CARTESIAN_POINT('',(1.47470033110561,-8.17149091470973,5.));
#768=CARTESIAN_POINT('',(6.38599421316511,-11.2869743492809,5.));
#769=CARTESIAN_POINT('',(7.81474070160536,-10.4297264562167,5.));
#770=CARTESIAN_POINT('',(4.84250694688253,-8.71449557214324,5.));
#771=CARTESIAN_POINT('',(2.74250701107804,-5.21449567913577,5.));
#772=CARTESIAN_POINT('',(5.69999987259507,-8.19999981671572,5.));
#773=CARTESIAN_POINT('',(6.69999989817905,-7.59999980136533,5.));
#774=CARTESIAN_POINT('',(6.4598710811248,-6.99978521939955,5.));
#775=CARTESIAN_POINT('',(7.61819825883818,-5.17021045521074,5.));
#776=CARTESIAN_POINT('',(6.99999984353781,-7.89999982342124,5.));
#777=CARTESIAN_POINT('',(4.7941175571588,-4.2235293461229,5.));
#778=CARTESIAN_POINT('',(7.99999982118607,-7.29999983683228,5.));
#779=CARTESIAN_POINT('',(7.95588222304907,-7.32647039571448,5.));
#780=CARTESIAN_POINT('',(7.00000008195635,-4.70000033887729,5.));
#781=CARTESIAN_POINT('',(5.98711349147041,-2.06649502538855,5.));
#782=CARTESIAN_POINT('',(5.50000008195639,-4.70000003154079,5.));
#783=CARTESIAN_POINT('',(4.49999958556142,-4.69999982664969,5.));
#784=CARTESIAN_POINT('',(5.49999987706542,-5.69999987259507,5.));
#785=CARTESIAN_POINT('',(5.50000008195639,-2.3500000157704,5.));
#786=CARTESIAN_POINT('',(3.4999999217689,-4.69999989494681,5.));
#787=CARTESIAN_POINT('',(3.55999997258186,-4.72999992035329,5.));
#788=CARTESIAN_POINT('',(3.49999998696148,-4.69999989494681,5.));
#789=CARTESIAN_POINT('Origin',(-0.199999999999999,6.00000008940697,6.));
#790=CARTESIAN_POINT('',(4.67100836174002,12.3159658601359,0.));
#791=CARTESIAN_POINT('',(4.67100836174002,12.3159658601359,6.));
#792=CARTESIAN_POINT('',(-0.2,6.00000008940697,0.));
#793=CARTESIAN_POINT('',(4.67100836174002,12.3159658601359,0.));
#794=CARTESIAN_POINT('',(-0.2,6.00000008940697,0.));
#795=CARTESIAN_POINT('Origin',(4.67100836174002,12.3159658601359,6.));
#796=CARTESIAN_POINT('',(6.38599421316511,11.2869743492809,0.));
#797=CARTESIAN_POINT('',(6.38599421316511,11.2869743492809,6.));
#798=CARTESIAN_POINT('',(6.38599421316511,11.2869743492809,0.));
#799=CARTESIAN_POINT('Origin',(6.38599421316511,11.2869743492809,6.));
#800=CARTESIAN_POINT('',(4.84250694688253,8.71449557214324,0.));
#801=CARTESIAN_POINT('',(4.84250694688253,8.71449557214324,6.));
#802=CARTESIAN_POINT('',(4.84250694688253,8.71449557214324,0.));
#803=CARTESIAN_POINT('Origin',(4.84250694688253,8.71449557214324,6.));
#804=CARTESIAN_POINT('',(5.69999987259507,8.19999981671572,0.));
#805=CARTESIAN_POINT('',(5.69999987259507,8.19999981671572,6.));
#806=CARTESIAN_POINT('',(5.69999987259507,8.19999981671572,0.));
#807=CARTESIAN_POINT('Origin',(5.69999987259507,8.19999981671572,6.));
#808=CARTESIAN_POINT('',(6.4598710811248,6.99978521939955,0.));
#809=CARTESIAN_POINT('',(6.4598710811248,6.99978521939955,6.));
#810=CARTESIAN_POINT('',(6.4598710811248,6.99978521939955,0.));
#811=CARTESIAN_POINT('Origin',(6.4598710811248,6.99978521939955,6.));
#812=CARTESIAN_POINT('',(6.99999984353781,7.89999982342124,0.));
#813=CARTESIAN_POINT('',(6.99999984353781,7.89999982342124,6.));
#814=CARTESIAN_POINT('',(6.99999984353781,7.89999982342124,0.));
#815=CARTESIAN_POINT('Origin',(6.99999984353781,7.89999982342124,6.));
#816=CARTESIAN_POINT('',(7.99999982118607,7.29999983683228,0.));
#817=CARTESIAN_POINT('',(7.99999982118607,7.29999983683228,6.));
#818=CARTESIAN_POINT('',(7.99999982118607,7.29999983683228,0.));
#819=CARTESIAN_POINT('Origin',(7.99999982118607,7.29999983683228,6.));
#820=CARTESIAN_POINT('',(7.00000008195635,4.70000033887729,0.));
#821=CARTESIAN_POINT('',(7.00000008195635,4.70000033887729,6.));
#822=CARTESIAN_POINT('',(7.00000008195635,4.70000033887729,0.));
#823=CARTESIAN_POINT('Origin',(7.00000008195635,4.70000033887729,6.));
#824=CARTESIAN_POINT('',(5.50000008195639,4.70000003154079,0.));
#825=CARTESIAN_POINT('',(5.50000008195639,4.70000003154079,0.));
#826=CARTESIAN_POINT('',(5.50000008195639,4.70000003154079,0.));
#827=CARTESIAN_POINT('Origin',(5.49999987706542,5.69999987259507,0.));
#828=CARTESIAN_POINT('',(5.49999987706542,5.69999987259507,0.));
#829=CARTESIAN_POINT('',(5.49999987706542,5.69999987259507,0.));
#830=CARTESIAN_POINT('',(5.49999987706542,5.69999987259507,0.));
#831=CARTESIAN_POINT('Origin',(3.4999999217689,4.69999989494681,0.));
#832=CARTESIAN_POINT('',(3.4999999217689,4.69999989494681,0.));
#833=CARTESIAN_POINT('',(3.4999999217689,4.69999989494681,0.));
#834=CARTESIAN_POINT('',(3.4999999217689,4.69999989494681,0.));
#835=CARTESIAN_POINT('Origin',(0.999999977648258,4.69999989494681,0.));
#836=CARTESIAN_POINT('',(0.999999977648258,4.69999989494681,0.));
#837=CARTESIAN_POINT('',(0.999999977648258,4.69999989494681,0.));
#838=CARTESIAN_POINT('',(0.999999977648258,4.69999989494681,0.));
#839=CARTESIAN_POINT('Origin',(1.00000001490116,-4.69999989494681,0.));
#840=CARTESIAN_POINT('',(1.00000001490116,-4.69999989494681,0.));
#841=CARTESIAN_POINT('',(1.00000001490116,-4.69999989494681,0.));
#842=CARTESIAN_POINT('',(1.00000001490116,-5.00000007450581,0.));
#843=CARTESIAN_POINT('Origin',(4.67100836174002,-12.3159658601359,6.));
#844=CARTESIAN_POINT('',(-0.2,-6.00000008940697,0.));
#845=CARTESIAN_POINT('',(-0.2,-6.00000008940697,0.));
#846=CARTESIAN_POINT('',(4.67100836174002,-12.3159658601359,0.));
#847=CARTESIAN_POINT('',(4.67100836174002,-12.3159658601359,0.));
#848=CARTESIAN_POINT('',(4.67100836174002,-12.3159658601359,6.));
#849=CARTESIAN_POINT('Origin',(6.38599421316511,-11.2869743492809,6.));
#850=CARTESIAN_POINT('',(6.38599421316511,-11.2869743492809,0.));
#851=CARTESIAN_POINT('',(6.38599421316511,-11.2869743492809,0.));
#852=CARTESIAN_POINT('',(6.38599421316511,-11.2869743492809,6.));
#853=CARTESIAN_POINT('Origin',(4.84250694688253,-8.71449557214324,6.));
#854=CARTESIAN_POINT('',(4.84250694688253,-8.71449557214324,0.));
#855=CARTESIAN_POINT('',(4.84250694688253,-8.71449557214324,0.));
#856=CARTESIAN_POINT('',(4.84250694688253,-8.71449557214324,6.));
#857=CARTESIAN_POINT('Origin',(5.69999987259507,-8.19999981671572,6.));
#858=CARTESIAN_POINT('',(5.69999987259507,-8.19999981671572,0.));
#859=CARTESIAN_POINT('',(5.69999987259507,-8.19999981671572,0.));
#860=CARTESIAN_POINT('',(5.69999987259507,-8.19999981671572,6.));
#861=CARTESIAN_POINT('Origin',(6.4598710811248,-6.99978521939955,6.));
#862=CARTESIAN_POINT('',(6.4598710811248,-6.99978521939955,0.));
#863=CARTESIAN_POINT('',(6.4598710811248,-6.99978521939955,0.));
#864=CARTESIAN_POINT('',(6.4598710811248,-6.99978521939955,6.));
#865=CARTESIAN_POINT('Origin',(6.99999984353781,-7.89999982342124,6.));
#866=CARTESIAN_POINT('',(6.99999984353781,-7.89999982342124,0.));
#867=CARTESIAN_POINT('',(6.99999984353781,-7.89999982342124,0.));
#868=CARTESIAN_POINT('',(6.99999984353781,-7.89999982342124,6.));
#869=CARTESIAN_POINT('Origin',(7.99999982118607,-7.29999983683228,6.));
#870=CARTESIAN_POINT('',(7.99999982118607,-7.29999983683228,0.));
#871=CARTESIAN_POINT('',(7.99999982118607,-7.29999983683228,0.));
#872=CARTESIAN_POINT('',(7.99999982118607,-7.29999983683228,6.));
#873=CARTESIAN_POINT('Origin',(7.00000008195635,-4.70000033887729,6.));
#874=CARTESIAN_POINT('',(7.00000008195635,-4.70000033887729,0.));
#875=CARTESIAN_POINT('',(7.00000008195635,-4.70000033887729,0.));
#876=CARTESIAN_POINT('',(7.00000008195635,-4.70000033887729,6.));
#877=CARTESIAN_POINT('Origin',(5.50000008195639,-4.70000003154079,6.));
#878=CARTESIAN_POINT('',(5.50000008195639,-4.70000003154079,0.));
#879=CARTESIAN_POINT('',(5.50000008195639,-4.70000003154079,0.));
#880=CARTESIAN_POINT('',(5.50000008195639,-4.70000003154079,0.));
#881=CARTESIAN_POINT('Origin',(-0.2,6.00000008940697,0.));
#882=CARTESIAN_POINT('',(-0.2,6.00000008940697,0.));
#883=CARTESIAN_POINT('Origin',(3.4999999217689,-4.69999989494681,0.));
#884=CARTESIAN_POINT('',(3.4999999217689,-4.69999989494681,0.));
#885=CARTESIAN_POINT('',(3.4999999217689,-4.69999989494681,0.));
#886=CARTESIAN_POINT('',(0.999999977648258,-4.69999989494681,0.));
#887=CARTESIAN_POINT('Origin',(5.49999987706542,-5.69999987259507,0.));
#888=CARTESIAN_POINT('',(5.49999987706542,-5.69999987259507,0.));
#889=CARTESIAN_POINT('',(5.49999987706542,-5.69999987259507,0.));
#890=CARTESIAN_POINT('',(3.4999999217689,-4.69999989494681,0.));
#891=CARTESIAN_POINT('Origin',(5.50000008195639,-4.70000003154079,0.));
#892=CARTESIAN_POINT('',(5.50000008195639,-5.50000008195639,0.));
#893=CARTESIAN_POINT('Origin',(3.50000005215406,0.,0.));
#894=UNCERTAINTY_MEASURE_WITH_UNIT(LENGTH_MEASURE(0.01),#898,
'DISTANCE_ACCURACY_VALUE',
'Maximum model space distance between geometric entities at asserted c
onnectivities');
#895=UNCERTAINTY_MEASURE_WITH_UNIT(LENGTH_MEASURE(0.01),#898,
'DISTANCE_ACCURACY_VALUE',
'Maximum model space distance between geometric entities at asserted c
onnectivities');
#896=(
GEOMETRIC_REPRESENTATION_CONTEXT(3)
GLOBAL_UNCERTAINTY_ASSIGNED_CONTEXT((#894))
GLOBAL_UNIT_ASSIGNED_CONTEXT((#898,#899,#900))
REPRESENTATION_CONTEXT('','3D')
);
#897=(
GEOMETRIC_REPRESENTATION_CONTEXT(3)
GLOBAL_UNCERTAINTY_ASSIGNED_CONTEXT((#895))
GLOBAL_UNIT_ASSIGNED_CONTEXT((#898,#899,#900))
REPRESENTATION_CONTEXT('','3D')
);
#898=(
LENGTH_UNIT()
NAMED_UNIT(*)
SI_UNIT(.MILLI.,.METRE.)
);
#899=(
NAMED_UNIT(*)
PLANE_ANGLE_UNIT()
SI_UNIT($,.RADIAN.)
);
#900=(
NAMED_UNIT(*)
SI_UNIT($,.STERADIAN.)
SOLID_ANGLE_UNIT()
);
#901=SHAPE_DEFINITION_REPRESENTATION(#902,#903);
#902=PRODUCT_DEFINITION_SHAPE('',$,#905);
#903=SHAPE_REPRESENTATION('',(#570),#896);
#904=PRODUCT_DEFINITION_CONTEXT('part definition',#909,'design');
#905=PRODUCT_DEFINITION('CameraClip V2','CameraClip V2 v2',#906,#904);
#906=PRODUCT_DEFINITION_FORMATION('',$,#911);
#907=PRODUCT_RELATED_PRODUCT_CATEGORY('CameraClip V2 v2',
'CameraClip V2 v2',(#911));
#908=APPLICATION_PROTOCOL_DEFINITION('international standard',
'automotive_design',2009,#909);
#909=APPLICATION_CONTEXT(
'Core Data for Automotive Mechanical Design Process');
#910=PRODUCT_CONTEXT('part definition',#909,'mechanical');
#911=PRODUCT('CameraClip V2','CameraClip V2 v2',$,(#910));
#912=PRESENTATION_STYLE_ASSIGNMENT((#913));
#913=SURFACE_STYLE_USAGE(.BOTH.,#914);
#914=SURFACE_SIDE_STYLE('',(#915));
#915=SURFACE_STYLE_FILL_AREA(#916);
#916=FILL_AREA_STYLE('Steel - Satin',(#917));
#917=FILL_AREA_STYLE_COLOUR('Steel - Satin',#918);
#918=COLOUR_RGB('Steel - Satin',0.627450980392157,0.627450980392157,0.627450980392157);
ENDSEC;
END-ISO-10303-21;
